<svg width="43" height="43" viewBox="0 0 43 43" fill="none" xmlns="http://www.w3.org/2000/svg">
<circle cx="21.5" cy="21.5" r="21.5" fill="#1DD1A1"/>
<g clip-path="url(#clip0)">
<path d="M31.9062 10.375H11.0938C9.38713 10.375 8 11.7621 8 13.4688V27.5312C8 29.2379 9.38713 30.625 11.0938 30.625H31.9062C33.6129 30.625 35 29.2379 35 27.5312V13.4688C35 11.7621 33.6129 10.375 31.9062 10.375ZM16.4375 14.875C17.9878 14.875 19.25 16.1372 19.25 17.6875C19.25 19.2378 17.9878 20.5 16.4375 20.5C14.8872 20.5 13.625 19.2378 13.625 17.6875C13.625 16.1372 14.8872 14.875 16.4375 14.875ZM21.5 25.2812C21.5 25.747 21.122 26.125 20.6562 26.125H12.2188C11.753 26.125 11.375 25.747 11.375 25.2812V24.7188C11.375 23.0121 12.7621 21.625 14.4688 21.625H18.4062C20.1129 21.625 21.5 23.0121 21.5 24.7188V25.2812ZM30.7812 26.125H24.5938C24.128 26.125 23.75 25.747 23.75 25.2812C23.75 24.8155 24.128 24.4375 24.5938 24.4375H30.7812C31.247 24.4375 31.625 24.8155 31.625 25.2812C31.625 25.747 31.247 26.125 30.7812 26.125ZM30.7812 21.625H24.5938C24.128 21.625 23.75 21.247 23.75 20.7812C23.75 20.3155 24.128 19.9375 24.5938 19.9375H30.7812C31.247 19.9375 31.625 20.3155 31.625 20.7812C31.625 21.247 31.247 21.625 30.7812 21.625ZM30.7812 17.125H24.5938C24.128 17.125 23.75 16.747 23.75 16.2812C23.75 15.8155 24.128 15.4375 24.5938 15.4375H30.7812C31.247 15.4375 31.625 15.8155 31.625 16.2812C31.625 16.747 31.247 17.125 30.7812 17.125Z" fill="black"/>
</g>
<defs>
<clipPath id="clip0">
<rect width="27" height="27" fill="white" transform="translate(8 7)"/>
</clipPath>
</defs>
</svg>
