<svg width="43" height="43" viewBox="0 0 43 43" fill="none" xmlns="http://www.w3.org/2000/svg">
<circle cx="21.5" cy="21.5" r="21.5" fill="#1DD1A1"/>
<path d="M28.75 16.6667H27.625V14.4762C27.625 11.4533 25.105 9 22 9C18.895 9 16.375 11.4533 16.375 14.4762V16.6667H15.25C14.0125 16.6667 13 17.6524 13 18.8571V29.8095C13 31.0143 14.0125 32 15.25 32H28.75C29.9875 32 31 31.0143 31 29.8095V18.8571C31 17.6524 29.9875 16.6667 28.75 16.6667ZM22 26.5238C20.7625 26.5238 19.75 25.5381 19.75 24.3333C19.75 23.1286 20.7625 22.1429 22 22.1429C23.2375 22.1429 24.25 23.1286 24.25 24.3333C24.25 25.5381 23.2375 26.5238 22 26.5238ZM25.4875 16.6667H18.5125V14.4762C18.5125 12.6033 20.0762 11.081 22 11.081C23.9238 11.081 25.4875 12.6033 25.4875 14.4762V16.6667Z" fill="black"/>
</svg>
