<svg width="43" height="43" viewBox="0 0 43 43" fill="none" xmlns="http://www.w3.org/2000/svg">
<circle cx="21.5" cy="21.5" r="21.5" fill="#1DD1A1"/>
<path d="M29.7073 17.5802C29.0361 16.1106 28.104 14.5639 26.9368 12.9835C24.9619 10.3093 23.0157 8.47775 22.9337 8.40113L22.5054 8L22.0726 8.3954C21.9907 8.47023 20.0418 10.2603 18.0652 12.9145C16.8969 14.4833 15.964 16.0282 15.2923 17.5067C14.4349 19.3939 14 21.1849 14 22.8295C14 27.886 17.8131 32 22.5 32C27.187 32 31 27.886 31 22.8295C31 21.2248 30.565 19.4588 29.7073 17.5802V17.5802Z" fill="black"/>
</svg>
