<svg width="43" height="43" viewBox="0 0 43 43" fill="none" xmlns="http://www.w3.org/2000/svg">
<circle cx="21.5" cy="21.5" r="21.5" fill="#1DD1A1"/>
<path d="M20.9974 21.6268C16.3049 21.6268 12.3726 20.2482 11.2989 18.3896C11.1102 18.7168 11 19.0567 11 19.4095V22.451C11 24.8007 15.4773 26.707 20.9974 26.707C26.521 26.707 31 24.8007 31 22.451V19.4095C31 19.0567 30.8881 18.7168 30.6976 18.3896C29.624 20.2474 25.6951 21.6268 20.9974 21.6268Z" fill="#030104"/>
<path d="M20.9974 27.9092C16.3049 27.9092 12.3726 26.529 11.2989 24.6738C11.1102 24.9992 11 25.3392 11 25.6911V28.7352C11 31.0857 15.4773 32.9912 20.9974 32.9912C26.521 32.9912 31 31.0865 31 28.7352V25.6911C31 25.3392 30.8881 24.9992 30.6976 24.6747C29.624 26.529 25.6951 27.9092 20.9974 27.9092Z" fill="#030104"/>
<path d="M30.7267 12.3066C30.5302 14.0285 26.2579 15.4062 20.9974 15.4062C15.7395 15.4062 11.4672 14.0285 11.2716 12.3075C11.0999 12.6201 11 12.9464 11 13.282V16.3236C11 18.6741 15.4773 20.5796 20.9974 20.5796C26.521 20.5796 31 18.6749 31 16.3236V13.282C31 12.9464 30.8984 12.6201 30.7267 12.3066Z" fill="#030104"/>
<path d="M20.9974 14.4409C26.3809 14.4409 30.7429 13 30.7429 11.22C30.7429 9.44175 26.3809 8 20.9974 8C15.6173 8.00085 11.2537 9.4426 11.2537 11.2209C11.2537 13 15.6173 14.4409 20.9974 14.4409Z" fill="#030104"/>
</svg>
