<svg width="43" height="43" viewBox="0 0 43 43" fill="none" xmlns="http://www.w3.org/2000/svg">
<circle cx="21.5" cy="21.5" r="21.5" fill="#1DD1A1"/>
<path d="M30.2977 23.17C30.3421 22.795 30.3716 22.405 30.3716 22C30.3716 21.595 30.3421 21.205 30.2829 20.83L32.7818 18.85C33.0036 18.67 33.0627 18.34 32.9296 18.085L30.5639 13.93C30.416 13.66 30.1055 13.57 29.8393 13.66L26.8969 14.86C26.2759 14.38 25.6253 13.99 24.9008 13.69L24.4572 10.51C24.4129 10.21 24.1615 10 23.8658 10H19.1342C18.8385 10 18.6019 10.21 18.5576 10.51L18.114 13.69C17.3895 13.99 16.7241 14.395 16.1179 14.86L13.1754 13.66C12.9093 13.555 12.5988 13.66 12.4509 13.93L10.0852 18.085C9.9373 18.355 9.99644 18.67 10.233 18.85L12.7319 20.83C12.6727 21.205 12.6284 21.61 12.6284 22C12.6284 22.39 12.6579 22.795 12.7171 23.17L10.2182 25.15C9.99644 25.33 9.9373 25.66 10.0704 25.915L12.4361 30.07C12.584 30.34 12.8945 30.43 13.1607 30.34L16.1031 29.14C16.7241 29.62 17.3747 30.01 18.0992 30.31L18.5428 33.49C18.6019 33.79 18.8385 34 19.1342 34H23.8658C24.1615 34 24.4129 33.79 24.4424 33.49L24.886 30.31C25.6105 30.01 26.2759 29.605 26.8821 29.14L29.8246 30.34C30.0907 30.445 30.4012 30.34 30.5491 30.07L32.9148 25.915C33.0627 25.645 33.0036 25.33 32.767 25.15L30.2977 23.17V23.17ZM21.5 26.5C19.0603 26.5 17.0642 24.475 17.0642 22C17.0642 19.525 19.0603 17.5 21.5 17.5C23.9397 17.5 25.9358 19.525 25.9358 22C25.9358 24.475 23.9397 26.5 21.5 26.5Z" fill="black"/>
</svg>
