<svg width="43" height="43" viewBox="0 0 43 43" fill="none" xmlns="http://www.w3.org/2000/svg">
<circle cx="21.5" cy="21.5" r="21.5" fill="#1DD1A1"/>
<path d="M10 28.1326H19.276V29.1412C19.276 29.9661 18.6073 30.6348 17.7825 30.6349H14.9793V32.0412H29.0208V30.6349H26.2176C25.3927 30.6348 24.7241 29.9661 24.7241 29.1412V28.1326H34V25.8481H10V28.1326Z" fill="black"/>
<path d="M21.6022 19.7755C21.7444 20.3116 21.8989 20.6085 22.0014 20.7513C22.2303 20.4302 22.5876 19.4606 22.6733 17.9033H21.3273C21.3657 18.5915 21.46 19.2392 21.6022 19.7755V19.7755Z" fill="black"/>
<path d="M22.3978 14.6252C22.2556 14.0891 22.101 13.7922 21.9986 13.6494C21.7696 13.9705 21.4124 14.9401 21.3267 16.4974H22.6727C22.6343 15.8091 22.54 15.1615 22.3978 14.6252V14.6252Z" fill="black"/>
<path d="M18.436 16.4969H19.919C19.9658 15.5572 20.1062 14.6832 20.3259 13.9775C19.363 14.4798 18.652 15.4002 18.436 16.4969Z" fill="black"/>
<path d="M23.6741 13.9775C23.8937 14.6832 24.0342 15.5573 24.081 16.4969H25.5639C25.3479 15.4002 24.6369 14.4798 23.6741 13.9775V13.9775Z" fill="black"/>
<path d="M10 9.9585V24.4421H34V9.9585H10ZM22 22.2393C19.2215 22.2393 16.9609 19.9788 16.9609 17.2003C16.9609 14.4217 19.2215 12.1612 22 12.1612C24.7785 12.1612 27.0391 14.4217 27.0391 17.2003C27.0391 19.9788 24.7785 22.2393 22 22.2393Z" fill="black"/>
<path d="M23.6741 20.4227C24.6369 19.9204 25.3479 19 25.5639 17.9033H24.081C24.0342 18.8429 23.8938 19.717 23.6741 20.4227Z" fill="black"/>
<path d="M18.436 17.9033C18.652 19 19.363 19.9204 20.3259 20.4227C20.1062 19.717 19.9658 18.8429 19.919 17.9033H18.436Z" fill="black"/>
</svg>
