<svg width="43" height="43" viewBox="0 0 43 43" fill="none" xmlns="http://www.w3.org/2000/svg">
<circle cx="21.5" cy="21.5" r="21.5" fill="#1DD1A1"/>
<path d="M20.15 17.666V8C13.4 8.675 8 14.4665 8 21.5C8 28.5335 13.4 34.325 20.15 35V25.334C18.8 24.7805 17.45 23.282 17.45 21.5C17.45 19.718 18.8 18.2195 20.15 17.666ZM25.361 20.15H35C34.352 13.7375 29.6 8.6345 22.85 8V17.666C24.2 18.071 24.902 18.989 25.361 20.15ZM22.85 25.334V35C29.6 34.3655 34.352 29.2625 35 22.85H25.361C24.902 24.011 24.2 24.929 22.85 25.334Z" fill="black"/>
</svg>
