<svg width="43" height="43" viewBox="0 0 43 43" fill="none" xmlns="http://www.w3.org/2000/svg">
<circle cx="21.5" cy="21.5" r="21.5" fill="#C94925"/>
<path d="M27.4 20.5C29.056 20.5 30.388 19.14 30.388 17.4643C30.388 15.7886 29.056 14.4286 27.4 14.4286C25.744 14.4286 24.4 15.7886 24.4 17.4643C24.4 19.14 25.744 20.5 27.4 20.5ZM18.4 19.2857C20.392 19.2857 21.988 17.6586 21.988 15.6429C21.988 13.6271 20.392 12 18.4 12C16.408 12 14.8 13.6271 14.8 15.6429C14.8 17.6586 16.408 19.2857 18.4 19.2857ZM27.4 22.9286C25.204 22.9286 20.8 24.0457 20.8 26.2679V29H34V26.2679C34 24.0457 29.596 22.9286 27.4 22.9286ZM18.4 21.7143C15.604 21.7143 10 23.135 10 25.9643V29H18.4V26.2679C18.4 25.2357 18.796 23.4264 21.244 22.0543C20.2 21.8357 19.192 21.7143 18.4 21.7143Z" fill="black"/>
</svg>
