<svg width="43" height="43" viewBox="0 0 43 43" fill="none" xmlns="http://www.w3.org/2000/svg">
<circle cx="21.5" cy="21.5" r="21.5" fill="#C94925"/>
<path d="M21.5363 18.9722C18.4145 18.1528 17.4106 17.3056 17.4106 15.9861C17.4106 14.4722 18.7996 13.4167 21.1238 13.4167C23.5717 13.4167 24.4794 14.5972 24.5619 16.3333H27.6012C27.5049 13.9444 26.0609 11.75 23.1866 11.0417V8H19.0609V11C16.3929 11.5833 14.2475 13.3333 14.2475 16.0139C14.2475 19.2222 16.8743 20.8194 20.7112 21.75C24.1493 22.5833 24.8369 23.8056 24.8369 25.0972C24.8369 26.0556 24.1631 27.5833 21.1238 27.5833C18.2908 27.5833 17.1768 26.3056 17.0255 24.6667H14C14.165 27.7083 16.4204 29.4167 19.0609 29.9861V33H23.1866V30.0139C25.8684 29.5 28 27.9306 28 25.0833C28 21.1389 24.6582 19.7917 21.5363 18.9722Z" fill="black"/>
</svg>
