<svg width="1920" height="524" viewBox="0 0 1920 524" fill="none" xmlns="http://www.w3.org/2000/svg">
<g clip-path="url(#clip0)">
<path d="M1920 0H0V524H1920V0Z" fill="#05294C"/>
<path d="M960 481.24C1081.24 481.24 1179.52 382.957 1179.52 261.72C1179.52 140.482 1081.24 42.1997 960 42.1997C838.762 42.1997 740.48 140.482 740.48 261.72C740.48 382.957 838.762 481.24 960 481.24Z" stroke="#083F75" stroke-width="4" stroke-miterlimit="10"/>
<path d="M960 590.22C1141.43 590.22 1288.5 443.145 1288.5 261.72C1288.5 80.2942 1141.43 -66.7803 960 -66.7803C778.574 -66.7803 631.5 80.2942 631.5 261.72C631.5 443.145 778.574 590.22 960 590.22Z" stroke="#083F75" stroke-width="4" stroke-miterlimit="10"/>
<path d="M621.476 424.206C711.214 611.167 935.524 689.982 1122.49 600.244C1309.45 510.506 1388.26 286.196 1298.52 99.2342C1208.79 -87.7276 984.476 -166.543 797.514 -76.8043C610.553 12.9341 531.738 237.244 621.476 424.206Z" stroke="#083F75" stroke-width="8" stroke-linecap="round" stroke-linejoin="round"/>
<path d="M960 809.22C1262.38 809.22 1507.5 564.096 1507.5 261.72C1507.5 -40.6562 1262.38 -285.78 960 -285.78C657.624 -285.78 412.5 -40.6562 412.5 261.72C412.5 564.096 657.624 809.22 960 809.22Z" stroke="#083F75" stroke-width="4" stroke-miterlimit="10"/>
<path d="M960 1080.22C1412.05 1080.22 1778.5 713.765 1778.5 261.72C1778.5 -190.325 1412.05 -556.78 960 -556.78C507.955 -556.78 141.5 -190.325 141.5 261.72C141.5 713.765 507.955 1080.22 960 1080.22Z" stroke="#083F75" stroke-width="4" stroke-miterlimit="10"/>
</g>
<defs>
<clipPath id="clip0">
<rect width="1920" height="524" fill="white"/>
</clipPath>
</defs>
</svg>
