<svg width="43" height="43" viewBox="0 0 43 43" fill="none" xmlns="http://www.w3.org/2000/svg">
<circle cx="21.5" cy="21.5" r="21.5" fill="#1DD1A1"/>
<path d="M29.8728 13.7067C31.1706 11.7077 29.6954 8.98583 27.2941 9.00006C26.3065 9.00006 25.4272 9.47096 24.8676 10.1996C26.4014 10.6688 27.8063 11.5083 28.9715 12.6733C29.298 12.9997 29.5984 13.3452 29.8728 13.7067V13.7067Z" fill="black"/>
<path d="M19.0179 10.2036C18.4584 9.47269 17.5777 9.00006 16.5882 9.00006C14.1823 8.98573 12.709 11.7165 14.0139 13.7143C15.2592 12.0708 17.0027 10.8248 19.0179 10.2036V10.2036Z" fill="black"/>
<path d="M21.9412 28.8823C19.4718 28.9449 18.0798 31.8376 18.1177 34.2352V34.9999H25.7647V34.2352C25.7647 32.7655 25.3418 31.3922 24.5738 30.3682C23.8552 29.4101 22.9202 28.8823 21.9412 28.8823V28.8823Z" fill="black"/>
<path d="M21.9412 15.8823C19.8329 15.8823 18.1177 17.5976 18.1177 19.7058C18.3277 24.7783 25.5555 24.7768 25.7647 19.7058C25.7647 17.5976 24.0495 15.8823 21.9412 15.8823V15.8823ZM21.9412 21.9999C21.2686 21.9999 20.6362 21.738 20.1607 21.2624L21.2421 20.181C21.6101 20.5644 22.2723 20.5645 22.6402 20.181L23.7218 21.2624C23.2461 21.738 22.6138 21.9999 21.9412 21.9999V21.9999Z" fill="black"/>
<path d="M29.3236 25.9134C29.0619 25.7473 28.8817 25.4878 28.8161 25.1826C28.7513 24.8811 28.8076 24.5751 28.9748 24.3208V24.3207C31.1554 21.0992 30.6889 16.4626 27.8903 13.7548C20.5386 6.82112 9.62132 15.6933 14.8994 24.3083C15.0707 24.5699 15.1287 24.8826 15.0625 25.1889C14.9971 25.4914 14.8183 25.7486 14.5589 25.9132C12.9566 26.9301 12 28.669 12 30.5645V34.9998H16.5882V34.2351C16.5169 31.014 18.623 27.3554 21.9412 27.3528C23.4133 27.3528 24.7827 28.0977 25.7973 29.4505C26.7625 30.7374 27.294 32.4367 27.294 34.2351V34.9998H31.8823V30.5646C31.8823 28.669 30.9258 26.9303 29.3236 25.9134V25.9134ZM21.9412 25.0587C18.9896 25.0587 16.5883 22.6573 16.5883 19.7057C16.8823 12.6044 27.0011 12.6065 27.2941 19.7058C27.2941 22.6574 24.8928 25.0587 21.9412 25.0587Z" fill="black"/>
</svg>
