<svg width="43" height="43" viewBox="0 0 43 43" fill="none" xmlns="http://www.w3.org/2000/svg">
<circle cx="21.5" cy="21.5" r="21.5" fill="#1DD1A1"/>
<g clip-path="url(#clip0)">
<path d="M11.598 20.0098H8.89957C8.40276 20.0098 8 20.3958 8 20.8719V30.7794C8 31.2555 8.40276 31.6415 8.89957 31.6415H11.598C12.0947 31.6415 12.4975 31.2555 12.4975 30.7794V20.8716C12.4978 20.3955 12.0947 20.0098 11.598 20.0098Z" fill="black"/>
<path d="M18.0961 16.2944H15.3977C14.9009 16.2944 14.4982 16.6804 14.4982 17.1565V30.7797C14.4982 31.2558 14.9009 31.6418 15.3977 31.6418H18.0961C18.5929 31.6418 18.9957 31.2558 18.9957 30.7797V17.1563C18.9956 16.6805 18.5929 16.2944 18.0961 16.2944Z" fill="black"/>
<path d="M24.5942 12.5786H21.8955C21.3987 12.5786 20.996 12.9646 20.996 13.4407V30.7795C20.996 31.2556 21.3987 31.6416 21.8955 31.6416H24.5939C25.0907 31.6416 25.4934 31.2556 25.4934 30.7795V13.4404C25.4934 12.9643 25.0907 12.5786 24.5942 12.5786Z" fill="black"/>
<path d="M31.1005 9.3584H28.4021C27.9053 9.3584 27.5026 9.74437 27.5026 10.2205V30.7795C27.5026 31.2556 27.9053 31.6416 28.4021 31.6416H31.1005C31.5973 31.6416 32.0001 31.2556 32.0001 30.7795V10.2202C32.0001 9.74411 31.5973 9.3584 31.1005 9.3584Z" fill="black"/>
</g>
<defs>
<clipPath id="clip0">
<rect width="24" height="23" fill="white" transform="translate(8 9)"/>
</clipPath>
</defs>
</svg>
