<svg width="27" height="27" viewBox="0 0 27 27" fill="none" xmlns="http://www.w3.org/2000/svg">
<path d="M26.8436 13.095L20.8437 7.62621C20.677 7.49082 20.4948 7.46477 20.2968 7.54812C20.0991 7.63158 19.9998 7.78251 19.9998 8.00137V11.5014H0.499988C0.354085 11.5014 0.234232 11.5482 0.140594 11.6419C0.0470107 11.7356 0 11.8555 0 12.0013V15.0012C0 15.1469 0.0467918 15.2668 0.140539 15.3604C0.234397 15.4541 0.354249 15.5009 0.499933 15.5009H20V19.0008C20 19.2094 20.0994 19.3604 20.297 19.4539C20.4951 19.5375 20.6774 19.5059 20.8441 19.3604L26.8439 13.8287C26.9481 13.7246 27 13.5999 27 13.4539C27 13.3188 26.9477 13.1992 26.8436 13.095Z" fill="white"/>
</svg>
