<svg width="43" height="43" viewBox="0 0 43 43" fill="none" xmlns="http://www.w3.org/2000/svg">
<circle cx="21.5" cy="21.5" r="20.75" stroke="#F1BD44" stroke-width="1.5"/>
<path d="M30.1239 24.5946L28.5468 26.197C28.5014 26.25 28.4428 26.2902 28.377 26.3133L24.4098 27.6285H26.8509C27.1296 27.6285 27.3556 27.8545 27.3556 28.1332C27.3556 28.4119 27.1296 28.6378 26.8509 28.6378H13.4135C13.1348 28.6378 12.9088 28.4119 12.9088 28.1332C12.9088 27.8545 13.1348 27.6285 13.4135 27.6285H23.9096C23.8667 27.6285 23.8268 27.5819 23.7913 27.5464C23.6563 27.4136 23.609 27.215 23.6696 27.0356L23.9737 26.1145H13.4135C13.1348 26.1145 12.9088 25.8885 12.9088 25.6098C12.9088 25.3311 13.1348 25.1051 13.4135 25.1051H24.311L25.0227 22.9667C25.0404 22.8969 25.0754 22.8329 25.1247 22.7806L30.1239 17.765V12.1098H25.5762C25.2975 12.1098 25.0772 11.9124 25.0772 11.6335V7H10.1262V34H30.1239V24.5946ZM13.4135 22.5818H20.5425C20.8212 22.5818 21.0472 22.8077 21.0472 23.0864C21.0472 23.3652 20.8212 23.5911 20.5425 23.5911H13.4135C13.1348 23.5911 12.9088 23.3652 12.9088 23.0864C12.9088 22.8077 13.1348 22.5818 13.4135 22.5818ZM26.8509 31.1612H13.4135C13.1348 31.1612 12.9088 30.9352 12.9088 30.6565C12.9088 30.3778 13.1348 30.1519 13.4135 30.1519H26.8509C27.1296 30.1519 27.3556 30.3778 27.3556 30.6565C27.3556 30.9352 27.1296 31.1612 26.8509 31.1612Z" fill="#E06B3B"/>
<path d="M26.0864 7.74512V11.1007H29.4649L26.0864 7.74512Z" fill="#E06B3B"/>
<path d="M24.9475 26.4076L27.2834 25.6267L25.7284 24.0718L24.9475 26.4076Z" fill="#E06B3B"/>
<path d="M28.2165 25.1321L34.6062 18.7283L32.6264 16.7485L26.2227 23.1383L28.2165 25.1321Z" fill="#E06B3B"/>
<path d="M36.8479 16.4814L34.8731 14.5068L33.3408 16.0356L35.3191 18.0137L36.8479 16.4814Z" fill="#E06B3B"/>
</svg>
