<svg width="43" height="43" viewBox="0 0 43 43" fill="none" xmlns="http://www.w3.org/2000/svg">
<circle cx="21.5" cy="21.5" r="21.5" fill="#1DD1A1"/>
<path d="M35 9.87918V8.80439C35 8.36018 34.6383 8 34.1923 8H31.7694C31.4502 8 31.1612 8.187 31.0315 8.47719C30.9016 8.76737 30.9555 9.10628 31.1689 9.34243L31.9191 10.1726L22.2249 15.3216L18.3403 11.4531C18.1062 11.2199 17.7527 11.1527 17.4487 11.2835L7.4872 15.5735C7.0779 15.7499 6.88948 16.2233 7.06657 16.6311C7.2411 17.0334 7.72411 17.2242 8.1285 17.0502L17.5863 12.977L21.5058 16.8806C21.7573 17.131 22.1435 17.1883 22.4571 17.0215L33.0325 11.4046L33.592 12.0237C33.8131 12.2685 34.1726 12.3547 34.4817 12.2366C34.7939 12.1173 35 11.8188 35 11.4856V9.88472C35 9.8828 35 9.88089 35 9.87918V9.87918Z" fill="black"/>
<path d="M13.8372 17.2196V31.4421H17.5813V15.6514C17.5449 15.6612 17.509 15.6731 17.4736 15.688L13.8372 17.2196Z" fill="black"/>
<path d="M24.4186 31.4421H28.1628V16.4653L24.4186 18.428V31.4421Z" fill="black"/>
<path d="M19.2094 16.6279V31.4419H22.7907V19.3594L22.198 19.6825L19.2094 16.6279Z" fill="black"/>
<path d="M7 20.7282V30.6383C7 31.082 7.35703 31.4418 7.79736 31.4418H12.2093V17.9302L7.48082 19.9908C7.18895 20.1179 7 20.4077 7 20.7282V20.7282Z" fill="black"/>
<path d="M34.613 13.4874C34.3728 13.3412 34.0745 13.3335 33.8274 13.4672L29.7906 15.6519V31.4418H34.2026C34.6431 31.4418 35 31.0795 35 30.6327V14.1811C35 13.8969 34.853 13.6335 34.613 13.4874V13.4874Z" fill="black"/>
</svg>
