<svg width="43" height="43" viewBox="0 0 43 43" fill="none" xmlns="http://www.w3.org/2000/svg">
<circle cx="21.5" cy="21.5" r="21.5" fill="#1DD1A1"/>
<path d="M25.7807 18.1103C27.3719 16.72 29.5238 14.8397 29.7199 10.3477H31.1406V9H12.8594V10.3477H14.2801C14.4762 14.8397 16.6281 16.72 18.2193 18.1103C19.2867 19.0429 19.8906 19.6137 19.8906 20.5C19.8906 21.3863 19.2867 21.9571 18.2193 22.8897C16.6281 24.28 14.4762 26.1603 14.2801 30.6523H12.8594V32H31.1406V30.6523H29.7199C29.5238 26.1603 27.3719 24.28 25.7807 22.8897C24.7133 21.9571 24.1094 21.3863 24.1094 20.5C24.1094 19.6137 24.7133 19.0429 25.7807 18.1103ZM21.2969 25.5509C21.0797 25.5939 20.8652 25.6564 20.6558 25.7394L16.349 27.4473C17.0523 25.7335 18.1851 24.7433 19.1667 23.8856C20.2622 22.9285 21.2969 22.0244 21.2969 20.5V25.5509ZM24.8333 23.8856C25.8149 24.7433 26.9476 25.7335 27.651 27.4472L23.3442 25.7393C23.1348 25.6563 22.9203 25.5938 22.7031 25.5509V20.5C22.7031 22.0244 23.7378 22.9285 24.8333 23.8856ZM16.3243 13.4922C15.9843 12.6432 15.7495 11.6181 15.6881 10.3477H28.3119C28.2504 11.6181 28.0157 12.6432 27.6756 13.4922H16.3243Z" fill="white"/>
</svg>
